<?xml version="1.0" encoding="UTF-8"?>
<svg xmlns="http://www.w3.org/2000/svg" viewBox="0 0 369.25 84.48">
  <defs>
    <style>
      .cls-1 {
        fill: #00aeef;
      }

      .cls-2 {
        fill: #fff200;
      }

      .cls-3 {
        fill: #fff;
      }

      .cls-4 {
        fill: #ec008c;
      }

      .cls-5 {
        isolation: isolate;
      }

      .cls-6 {
        mix-blend-mode: multiply;
      }
    </style>
  </defs>
  <g class="cls-5">
    <g id="Layer_2" data-name="Layer 2">
      <g id="Layer_1-2" data-name="Layer 1">
        <g>
          <g>
            <path class="cls-3" d="M131.31,60.3c-4.44,0-7.02-2.04-8.46-4.5v13.74h-4.14c-4.56,0-6.96-2.4-6.96-7.98v-17.46c0-11.82,6.54-18.72,18.24-18.72,9.66,0,16.92,6.54,16.92,16.74,0,11.28-6.6,18.18-15.6,18.18ZM128.67,34.08c-3.12,0-5.64,3-5.64,7.86,0,7.02,3,9.48,6.9,9.48,3.6,0,5.58-3.18,5.58-8.1,0-7.08-2.16-9.24-6.84-9.24Z"/>
            <path class="cls-3" d="M167.16,25.44c9,0,17.1,6.84,17.1,17.04,0,10.8-6.54,17.76-17.94,17.76-9.42,0-17.1-6.96-17.1-16.68,0-10.92,7.56-18.12,17.94-18.12ZM166.44,34.44c-3.12,0-5.94,3.3-5.94,7.8,0,6.36,2.52,9.12,6.54,9.12,3.6,0,5.94-3.3,5.94-7.86,0-5.94-2.58-9.06-6.54-9.06Z"/>
            <path class="cls-3" d="M203.79,60.3c-9.72,0-17.22-7.98-17.22-16.92,0-11.1,6.84-18,15.6-18,4.2,0,7.32,1.86,8.52,4.44v-14.88h4.08c4.56,0,7.02,2.4,7.02,7.98v19.14c0,11.94-4.86,18.24-18,18.24ZM203.55,34.2c-3.06,0-5.64,3.18-5.64,8.22,0,6.48,3,9.12,7.14,9.12,3.54,0,5.4-2.76,5.4-7.92,0-7.38-2.82-9.42-6.9-9.42Z"/>
            <path class="cls-3" d="M273.72,59.34c-6.06,0-7.44-2.58-7.44-6.66v-12.18c0-4.26-1.44-5.82-4.74-5.82s-4.26,2.34-4.26,5.64v19.02h-3.96c-4.62,0-7.08-1.5-7.08-6.66v-12.48c0-3.9-1.5-5.52-4.5-5.52-3.18,0-4.44,1.62-4.44,5.7v18.96h-3.96c-5.1,0-7.44-2.46-7.44-6.66v-11.58c0-9.6,5.52-15.72,16.02-15.72,5.16,0,9.06,3.18,10.14,5.88,1.56-2.52,5.58-5.88,10.32-5.88,9.6,0,15.3,5.7,15.3,16.02v17.94h-3.96Z"/>
            <path class="cls-3" d="M295.31,60.24c-6.36,0-14.1-3-14.1-10.5s5.28-11.04,17.28-11.04h1.62v-1.38c0-2.7-2.1-3.36-6.6-3.36-6.18,0-8.46,1.44-10.8,3.6h-.3v-4.02c0-4.08,4.26-8.16,13.68-8.16s15.06,4.62,15.06,14.34v5.1c0,12-3.84,15.42-15.84,15.42ZM300.35,45.78h-2.28c-4.32,0-6.06,1.08-6.06,3.3,0,2.1,1.32,3.18,4.5,3.18,2.04,0,3.84-1.02,3.84-4.02v-2.46Z"/>
            <path class="cls-3" d="M319.32,20.52c1.5-1.14,3.54-2.22,5.94-2.22h1.2v8.04h9.66v4.02c0,2.82-3,4.98-5.58,4.98h-4.08v11.94c0,2.22,1.38,3.54,3.6,3.54,2.7,0,3.96-.24,5.16-.72h.3v4.44c0,2.76-2.52,5.28-8.46,5.28s-11.7-2.7-11.7-11.76v-20.46c0-3,1.74-5.4,3.96-7.08Z"/>
            <path class="cls-3" d="M353.11,46.92h-4.92c.66,3.3,3.36,4.86,8.1,4.86,5.28,0,8.58-.84,10.44-2.1h.42v2.64c0,4.2-3.42,7.98-12.84,7.98-11.4,0-17.4-7.68-17.4-16.8,0-10.02,6.78-18.18,16.98-18.18,8.64,0,15.36,4.86,15.36,13.26,0,6.6-4.98,8.34-16.14,8.34ZM353.89,33.84c-4.02,0-5.7,2.58-6,5.76h4.44c5.4,0,6.36-.84,6.36-2.28,0-1.68-1.5-3.48-4.8-3.48Z"/>
          </g>
          <g>
            <g class="cls-6">
              <circle class="cls-1" cx="59.91" cy="57.28" r="27.2"/>
            </g>
            <g class="cls-6">
              <circle class="cls-4" cx="27.2" cy="57.28" r="27.2"/>
            </g>
            <g class="cls-6">
              <circle class="cls-2" cx="43.55" cy="27.2" r="27.2"/>
            </g>
          </g>
        </g>
      </g>
    </g>
  </g>
</svg>